<svg width="908" height="908" viewBox="0 0 908 908" fill="none" xmlns="http://www.w3.org/2000/svg">
<path d="M744.6 553.7C741.8 562 738.7 570.2 735.3 578.2C736.5 575.4 737.7 572.6 738.8 569.8C735.9 576.6 732.7 583.1 729.6 589.8C724.6 600.6 722.2 609.4 721.3 621.3C719.8 640.8 728 659.8 740.3 674.5C748 683.6 757.9 690.8 765.2 700.3C763.4 697.9 761.6 695.6 759.7 693.2C761.1 695.2 762.2 697.2 763.1 699.4C761.9 696.6 760.7 693.8 759.6 691C760.4 693.2 761 695.4 761.4 697.7C761 694.6 760.6 691.5 760.1 688.4C760.4 691.2 760.4 693.9 760.1 696.6C760.5 693.5 760.9 690.4 761.4 687.3C761 689.6 760.4 691.8 759.6 694C760.8 691.2 762 688.4 763.1 685.6C762.1 687.8 761 689.8 759.7 691.8C761.5 689.4 763.3 687.1 765.2 684.7C762.4 688.3 759 691.4 755.8 694.6C749.8 700.6 743.7 706.7 737.7 712.7C723.9 726.5 710.2 740.2 696.4 754C692.6 757.8 688.9 761.9 684.7 765.2C687.1 763.4 689.4 761.6 691.8 759.7C689.8 761.1 687.8 762.2 685.6 763.1C688.4 761.9 691.2 760.7 694 759.6C691.8 760.4 689.6 761 687.3 761.4C690.4 761 693.5 760.6 696.6 760.1C693.8 760.4 691.1 760.4 688.4 760.1C691.5 760.5 694.6 760.9 697.7 761.4C695.4 761 693.2 760.4 691 759.6C693.8 760.8 696.6 762 699.4 763.1C697.2 762.1 695.2 761 693.2 759.7C695.6 761.5 697.9 763.3 700.3 765.2C690.9 757.9 683.8 747.9 674.5 740.3C659.8 728.2 641.5 720.2 622.1 721.3C610.3 722 600.6 724.7 589.9 729.6C583.2 732.7 576.6 735.9 569.9 738.8C572.7 737.6 575.5 736.4 578.3 735.3C563.5 741.5 546.2 745.1 533.2 754.7C518 766 505.6 781.6 502.1 800.7C499.2 816.5 501.8 832.2 500 847.9C500.4 844.8 500.8 841.7 501.3 838.6C500.9 840.8 500.4 842.9 499.6 845C500.8 842.2 502 839.4 503.1 836.6C502.1 839 500.8 841.3 499.3 843.4C501.1 841 502.9 838.7 504.8 836.3C503.2 838.4 501.4 840.1 499.3 841.8C501.7 840 504 838.2 506.4 836.3C504.3 837.9 502 839.1 499.6 840.1C502.4 838.9 505.2 837.7 508 836.6C505.9 837.4 503.8 837.9 501.6 838.3C504.7 837.9 507.8 837.5 510.9 837C498.1 838.5 484.7 837.3 471.9 837.3C452.4 837.3 433 837.3 413.5 837.3C408.2 837.3 402.8 837.6 397.5 837C400.6 837.4 403.7 837.8 406.8 838.3C404.6 837.9 402.5 837.4 400.4 836.6C403.2 837.8 406 839 408.8 840.1C406.4 839.1 404.1 837.8 402 836.3C404.4 838.1 406.7 839.9 409.1 841.8C407 840.2 405.3 838.4 403.6 836.3C405.4 838.7 407.2 841 409.1 843.4C407.5 841.3 406.3 839 405.3 836.6C406.5 839.4 407.7 842.2 408.8 845C408 842.9 407.5 840.8 407.1 838.6C407.5 841.7 407.9 844.8 408.4 847.9C406.5 832.1 409.2 816.5 406.3 800.7C402.8 781.6 390.4 765.9 375.2 754.7C362.2 745.1 344.9 741.5 330.1 735.3C332.9 736.5 335.7 737.7 338.5 738.8C331.7 735.9 325.2 732.7 318.5 729.6C307.7 724.6 298.9 722.2 287 721.3C267.5 719.8 248.5 728 233.8 740.3C224.7 748 217.5 757.9 208 765.2C210.4 763.4 212.7 761.6 215.1 759.7C213.1 761.1 211.1 762.2 208.9 763.1C211.7 761.9 214.5 760.7 217.3 759.6C215.1 760.4 212.9 761 210.6 761.4C213.7 761 216.8 760.6 219.9 760.1C217.1 760.4 214.4 760.4 211.7 760.1C214.8 760.5 217.9 760.9 221 761.4C218.7 761 216.5 760.4 214.3 759.6C217.1 760.8 219.9 762 222.7 763.1C220.5 762.1 218.5 761 216.5 759.7C218.9 761.5 221.2 763.3 223.6 765.2C220 762.4 216.9 759 213.7 755.8C207.7 749.8 201.6 743.7 195.6 737.7C181.8 723.9 168.1 710.2 154.3 696.4C150.5 692.6 146.4 688.9 143.1 684.7C144.9 687.1 146.7 689.4 148.6 691.8C147.2 689.8 146.1 687.8 145.2 685.6C146.4 688.4 147.6 691.2 148.7 694C147.9 691.8 147.3 689.6 146.9 687.3C147.3 690.4 147.7 693.5 148.2 696.6C147.9 693.8 147.9 691.1 148.2 688.4C147.8 691.5 147.4 694.6 146.9 697.7C147.3 695.4 147.9 693.2 148.7 691C147.5 693.8 146.3 696.6 145.2 699.4C146.2 697.2 147.3 695.2 148.6 693.2C146.8 695.6 145 697.9 143.1 700.3C150.4 690.9 160.4 683.8 168 674.5C180.1 659.8 188.1 641.5 187 622.1C186.3 610.3 183.6 600.6 178.7 589.9C175.6 583.2 172.4 576.6 169.5 569.9C170.7 572.7 171.9 575.5 173 578.3C166.8 563.5 163.2 546.2 153.6 533.2C142.3 518 126.7 505.6 107.6 502.1C91.8 499.2 76.1 501.8 60.4 500C63.5 500.4 66.6 500.8 69.7 501.3C67.5 500.9 65.4 500.4 63.3 499.6C66.1 500.8 68.9 502 71.7 503.1C69.3 502.1 67 500.8 64.9 499.3C67.3 501.1 69.6 502.9 72 504.8C69.9 503.2 68.2 501.4 66.5 499.3C68.3 501.7 70.1 504 72 506.4C70.4 504.3 69.2 502 68.2 499.6C69.4 502.4 70.6 505.2 71.7 508C70.9 505.9 70.4 503.8 70 501.6C70.4 504.7 70.8 507.8 71.3 510.9C69.8 498.1 71 484.7 71 471.9C71 452.4 71 433 71 413.5C71 408.2 70.7 402.8 71.3 397.5C70.9 400.6 70.5 403.7 70 406.8C70.4 404.6 70.9 402.5 71.7 400.4C70.5 403.2 69.3 406 68.2 408.8C69.2 406.4 70.5 404.1 72 402C70.2 404.4 68.4 406.7 66.5 409.1C68.1 407 69.9 405.3 72 403.6C69.6 405.4 67.3 407.2 64.9 409.1C67 407.5 69.3 406.3 71.7 405.3C68.9 406.5 66.1 407.7 63.3 408.8C65.4 408 67.5 407.5 69.7 407.1C66.6 407.5 63.5 407.9 60.4 408.4C76.2 406.5 91.8 409.2 107.6 406.3C126.7 402.8 142.4 390.4 153.6 375.2C163.2 362.2 166.8 344.9 173 330.1C171.8 332.9 170.6 335.7 169.5 338.5C172.4 331.7 175.6 325.2 178.7 318.5C183.7 307.7 186.1 298.9 187 287C188.5 267.5 180.3 248.5 168 233.8C160.3 224.7 150.4 217.5 143.1 208C144.9 210.4 146.7 212.7 148.6 215.1C147.2 213.1 146.1 211.1 145.2 208.9C146.4 211.7 147.6 214.5 148.7 217.3C147.9 215.1 147.3 212.9 146.9 210.6C147.3 213.7 147.7 216.8 148.2 219.9C147.9 217.1 147.9 214.4 148.2 211.7C147.8 214.8 147.4 217.9 146.9 221C147.3 218.7 147.9 216.5 148.7 214.3C147.5 217.1 146.3 219.9 145.2 222.7C146.2 220.5 147.3 218.5 148.6 216.5C146.8 218.9 145 221.2 143.1 223.6C145.9 220 149.3 216.9 152.5 213.7C158.5 207.7 164.6 201.6 170.6 195.6C184.4 181.8 198.1 168.1 211.9 154.3C215.7 150.5 219.4 146.4 223.6 143.1C221.2 144.9 218.9 146.7 216.5 148.6C218.5 147.2 220.5 146.1 222.7 145.2C219.9 146.4 217.1 147.6 214.3 148.7C216.5 147.9 218.7 147.3 221 146.9C217.9 147.3 214.8 147.7 211.7 148.2C214.5 147.9 217.2 147.9 219.9 148.2C216.8 147.8 213.7 147.4 210.6 146.9C212.9 147.3 215.1 147.9 217.3 148.7C214.5 147.5 211.7 146.3 208.9 145.2C211.1 146.2 213.1 147.3 215.1 148.6C212.7 146.8 210.4 145 208 143.1C217.4 150.4 224.5 160.4 233.8 168C248.5 180.1 266.8 188.1 286.2 187C298 186.3 307.7 183.6 318.4 178.7C325.1 175.6 331.7 172.4 338.4 169.5C335.6 170.7 332.8 171.9 330 173C344.8 166.8 362.1 163.2 375.1 153.6C390.3 142.3 402.7 126.7 406.2 107.6C409.1 91.8 406.5 76.1 408.3 60.4C407.9 63.5 407.5 66.6 407 69.7C407.4 67.5 407.9 65.4 408.7 63.3C407.5 66.1 406.3 68.9 405.2 71.7C406.2 69.3 407.5 67 409 64.9C407.2 67.3 405.4 69.6 403.5 72C405.1 69.9 406.9 68.2 409 66.5C406.6 68.3 404.3 70.1 401.9 72C404 70.4 406.3 69.2 408.7 68.2C405.9 69.4 403.1 70.6 400.3 71.7C402.4 70.9 404.5 70.4 406.7 70C403.6 70.4 400.5 70.8 397.4 71.3C410.2 69.8 423.6 71 436.4 71C455.9 71 475.3 71 494.8 71C500.1 71 505.5 70.7 510.8 71.3C507.7 70.9 504.6 70.5 501.5 70C503.7 70.4 505.8 70.9 507.9 71.7C505.1 70.5 502.3 69.3 499.5 68.2C501.9 69.2 504.2 70.5 506.3 72C503.9 70.2 501.6 68.4 499.2 66.5C501.3 68.1 503 69.9 504.7 72C502.9 69.6 501.1 67.3 499.2 64.9C500.8 67 502 69.3 503 71.7C501.8 68.9 500.6 66.1 499.5 63.3C500.3 65.4 500.8 67.5 501.2 69.7C500.8 66.6 500.4 63.5 499.9 60.4C501.8 76.2 499.1 91.8 502 107.6C505.5 126.7 517.9 142.4 533.1 153.6C546.1 163.2 563.4 166.8 578.2 173C575.4 171.8 572.6 170.6 569.8 169.5C576.6 172.4 583.1 175.6 589.8 178.7C600.6 183.7 609.4 186.1 621.3 187C640.8 188.5 659.8 180.3 674.5 168C683.6 160.3 690.8 150.4 700.3 143.1C697.9 144.9 695.6 146.7 693.2 148.6C695.2 147.2 697.2 146.1 699.4 145.2C696.6 146.4 693.8 147.6 691 148.7C693.2 147.9 695.4 147.3 697.7 146.9C694.6 147.3 691.5 147.7 688.4 148.2C691.2 147.9 693.9 147.9 696.6 148.2C693.5 147.8 690.4 147.4 687.3 146.9C689.6 147.3 691.8 147.9 694 148.7C691.2 147.5 688.4 146.3 685.6 145.2C687.8 146.2 689.8 147.3 691.8 148.6C689.4 146.8 687.1 145 684.7 143.1C688.3 145.9 691.4 149.3 694.6 152.5C700.6 158.5 706.7 164.6 712.7 170.6C726.5 184.4 740.2 198.1 754 211.9C757.8 215.7 761.9 219.4 765.2 223.6C763.4 221.2 761.6 218.9 759.7 216.5C761.1 218.5 762.2 220.5 763.1 222.7C761.9 219.9 760.7 217.1 759.6 214.3C760.4 216.5 761 218.7 761.4 221C761 217.9 760.6 214.8 760.1 211.7C760.4 214.5 760.4 217.2 760.1 219.9C760.5 216.8 760.9 213.7 761.4 210.6C761 212.9 760.4 215.1 759.6 217.3C760.8 214.5 762 211.7 763.1 208.9C762.1 211.1 761 213.1 759.7 215.1C761.5 212.7 763.3 210.4 765.2 208C757.9 217.4 747.9 224.5 740.3 233.8C728.2 248.5 720.2 266.8 721.3 286.2C722 298 724.7 307.7 729.6 318.4C732.7 325.1 735.9 331.7 738.8 338.4C737.6 335.6 736.4 332.8 735.3 330C741.5 344.8 745.1 362.1 754.7 375.1C766 390.3 781.6 402.7 800.7 406.2C816.5 409.1 832.2 406.5 847.9 408.3C844.8 407.9 841.7 407.5 838.6 407C840.8 407.4 842.9 407.9 845 408.7C842.2 407.5 839.4 406.3 836.6 405.2C839 406.2 841.3 407.5 843.4 409C841 407.2 838.7 405.4 836.3 403.5C838.4 405.1 840.1 406.9 841.8 409C840 406.6 838.2 404.3 836.3 401.9C837.9 404 839.1 406.3 840.1 408.7C838.9 405.9 837.7 403.1 836.6 400.3C837.4 402.4 837.9 404.5 838.3 406.7C837.9 403.6 837.5 400.5 837 397.4C838.5 410.2 837.3 423.6 837.3 436.4C837.3 455.9 837.3 475.3 837.3 494.8C837.3 500.1 837.6 505.5 837 510.8C837.4 507.7 837.8 504.6 838.3 501.5C837.9 503.7 837.4 505.8 836.6 507.9C837.8 505.1 839 502.3 840.1 499.5C839.1 501.9 837.8 504.2 836.3 506.3C838.1 503.9 839.9 501.6 841.8 499.2C840.2 501.3 838.4 503 836.3 504.7C838.7 502.9 841 501.1 843.4 499.2C841.3 500.8 839 502 836.6 503C839.4 501.8 842.2 500.6 845 499.5C842.9 500.3 840.8 500.8 838.6 501.2C841.7 500.8 844.8 500.4 847.9 499.9C837.7 501.1 827.2 500.1 817 500.2C803 500.4 787.7 504.1 776.1 512.2C760.9 522.9 750.8 536.2 744.6 553.7C741.7 561.9 743.9 573.4 748.1 580.7C752.3 588 760.7 594.9 769 596.8C788.6 601.3 805.5 590.9 812.1 572.4C812.4 571.5 812.7 570.6 813.1 569.8C811.9 572.6 810.7 575.4 809.6 578.2C811.1 574.8 812.9 571.7 815.2 568.7C813.4 571.1 811.6 573.4 809.7 575.8C811.7 573.3 813.9 571.1 816.4 569.1C814 570.9 811.7 572.7 809.3 574.6C812.2 572.4 815.2 570.5 818.6 569C815.8 570.2 813 571.4 810.2 572.5C813.6 571.1 817.1 570.1 820.7 569.6C817.6 570 814.5 570.4 811.4 570.9C820 569.9 828.9 570.5 837.5 570.5C841 570.5 844.5 570.6 848 570.2C863.3 568.7 876.5 563.2 888 552.7C901.1 540.7 907.5 522.8 907.6 505.3C907.6 499.4 907.6 493.5 907.6 487.6C907.6 467.5 907.6 447.4 907.6 427.4C907.6 407.7 909.3 387.8 899.1 369.8C887.1 348.6 864.4 337.9 840.6 337.9C831 337.9 821 338.7 811.5 337.5C814.6 337.9 817.7 338.3 820.8 338.8C817.1 338.2 813.7 337.3 810.3 335.9C813.1 337.1 815.9 338.3 818.7 339.4C815.4 337.9 812.3 336.1 809.4 333.8C811.8 335.6 814.1 337.4 816.5 339.3C814 337.3 811.8 335.1 809.8 332.6C811.6 335 813.4 337.3 815.3 339.7C813.1 336.7 811.2 333.6 809.7 330.2C810.9 333 812.1 335.8 813.2 338.6C809.9 330.2 807.1 321.5 803.6 313.1C799.2 302.4 794 292.2 789.5 281.6C790.7 284.4 791.9 287.2 793 290C791.7 286.7 790.8 283.4 790.3 279.8C790.7 282.9 791.1 286 791.6 289.1C791.2 285.6 791.2 282.3 791.6 278.8C791.2 281.9 790.8 285 790.3 288.1C790.9 284.2 791.9 280.4 793.4 276.8C792.2 279.6 791 282.4 789.9 285.2C791.4 282 793.2 279.1 795.3 276.2C793.5 278.6 791.7 280.9 789.8 283.3C795.2 276.8 801.7 271.1 807.6 265.1C810.1 262.6 812.5 260.3 814.7 257.6C824.4 245.4 830.5 231.8 830.5 215.9C830.5 198.3 822.9 182 810.6 169.7C806.4 165.5 802.2 161.3 798 157.1C784 143.1 770 129.1 756 115.1C742.4 101.5 730.1 87.1 711.2 80.8C687.6 72.8 662.3 81.7 645.3 98.7C638.6 105.4 632.3 112.6 625 118.7C627.4 116.9 629.7 115.1 632.1 113.2C629.3 115.4 626.4 117.1 623.1 118.6C625.9 117.4 628.7 116.2 631.5 115.1C627.8 116.6 624.1 117.7 620.2 118.2C623.3 117.8 626.4 117.4 629.5 116.9C626 117.3 622.7 117.3 619.2 116.9C622.3 117.3 625.4 117.7 628.5 118.2C625 117.7 621.7 116.8 618.3 115.5C621.1 116.7 623.9 117.9 626.7 119C616.1 114.5 605.8 109.3 595.2 104.9C586.8 101.4 578.2 98.6 569.7 95.3C572.5 96.5 575.3 97.7 578.1 98.8C574.7 97.3 571.6 95.5 568.6 93.2C571 95 573.3 96.8 575.7 98.7C573.2 96.7 571 94.5 569 92C570.8 94.4 572.6 96.7 574.5 99.1C572.3 96.2 570.4 93.2 568.9 89.8C570.1 92.6 571.3 95.4 572.4 98.2C571 94.8 570 91.3 569.5 87.7C569.9 90.8 570.3 93.9 570.8 97C569.8 88.4 570.4 79.5 570.4 70.9C570.4 67.4 570.5 63.9 570.1 60.4C568.6 45.1 563.1 31.9 552.6 20.4C540.6 7.3 522.7 0.899998 505.2 0.799998C499.3 0.799998 493.4 0.799998 487.5 0.799998C467.4 0.799998 447.3 0.799998 427.3 0.799998C407.6 0.799998 387.7 -0.899998 369.7 9.3C348.5 21.3 337.8 44 337.8 67.8C337.8 77.4 338.6 87.4 337.4 96.9C337.8 93.8 338.2 90.7 338.7 87.6C338.1 91.3 337.2 94.7 335.8 98.1C337 95.3 338.2 92.5 339.3 89.7C337.8 93 336 96.1 333.7 99C335.5 96.6 337.3 94.3 339.2 91.9C337.2 94.4 335 96.6 332.5 98.6C334.9 96.8 337.2 95 339.6 93.1C336.6 95.3 333.5 97.2 330.1 98.7C332.9 97.5 335.7 96.3 338.5 95.2C330.1 98.5 321.4 101.3 313 104.8C302.3 109.2 292.1 114.4 281.5 118.9C284.3 117.7 287.1 116.5 289.9 115.4C286.6 116.7 283.3 117.6 279.7 118.1C282.8 117.7 285.9 117.3 289 116.8C285.5 117.2 282.2 117.2 278.7 116.8C281.8 117.2 284.9 117.6 288 118.1C284.1 117.5 280.3 116.5 276.7 115C279.5 116.2 282.3 117.4 285.1 118.5C281.9 117 279 115.2 276.1 113.1C278.5 114.9 280.8 116.7 283.2 118.6C276.7 113.2 271 106.7 265 100.8C262.5 98.3 260.2 95.9 257.5 93.7C245.3 84 231.7 77.9 215.8 77.9C198.2 77.9 181.9 85.5 169.6 97.8C165.4 102 161.2 106.2 157 110.4C143 124.4 129 138.4 115 152.4C101.4 166 87 178.3 80.7 197.2C72.7 220.8 81.6 246.1 98.6 263.1C105.3 269.8 112.5 276.1 118.6 283.4C116.8 281 115 278.7 113.1 276.3C115.3 279.1 117 282 118.5 285.3C117.3 282.5 116.1 279.7 115 276.9C116.5 280.6 117.6 284.3 118.1 288.2C117.7 285.1 117.3 282 116.8 278.9C117.2 282.4 117.2 285.7 116.8 289.2C117.2 286.1 117.6 283 118.1 279.9C117.6 283.4 116.7 286.7 115.4 290.1C116.6 287.3 117.8 284.5 118.9 281.7C114.4 292.3 109.2 302.6 104.8 313.2C101.3 321.6 98.5 330.2 95.2 338.7C96.4 335.9 97.6 333.1 98.7 330.3C97.2 333.7 95.4 336.8 93.1 339.8C94.9 337.4 96.7 335.1 98.6 332.7C96.6 335.2 94.4 337.4 91.9 339.4C94.3 337.6 96.6 335.8 99 333.9C96.1 336.1 93.1 338 89.7 339.5C92.5 338.3 95.3 337.1 98.1 336C94.7 337.4 91.2 338.4 87.6 338.9C90.7 338.5 93.8 338.1 96.9 337.6C88.3 338.6 79.4 338 70.8 338C67.3 338 63.8 337.9 60.3 338.3C45 339.8 31.8 345.3 20.3 355.8C7.2 367.8 0.800001 385.7 0.700001 403.2C0.700001 409.1 0.700001 415 0.700001 420.9C0.700001 441 0.700001 461.1 0.700001 481.1C0.700001 500.8 -1 520.7 9.2 538.7C21.2 559.9 43.9 570.6 67.7 570.6C77.3 570.6 87.3 569.8 96.8 571C93.7 570.6 90.6 570.2 87.5 569.7C91.2 570.3 94.6 571.2 98 572.6C95.2 571.4 92.4 570.2 89.6 569.1C92.9 570.6 96 572.4 98.9 574.7C96.5 572.9 94.2 571.1 91.8 569.2C94.3 571.2 96.5 573.4 98.5 575.9C96.7 573.5 94.9 571.2 93 568.8C95.2 571.8 97.1 574.9 98.6 578.3C97.4 575.5 96.2 572.7 95.1 569.9C98.4 578.3 101.2 587 104.7 595.4C109.1 606.1 114.3 616.3 118.8 626.9C117.6 624.1 116.4 621.3 115.3 618.5C116.6 621.8 117.5 625.1 118 628.7C117.6 625.6 117.2 622.5 116.7 619.4C117.1 622.9 117.1 626.2 116.7 629.7C117.1 626.6 117.5 623.5 118 620.4C117.4 624.3 116.4 628.1 114.9 631.7C116.1 628.9 117.3 626.1 118.4 623.3C116.9 626.5 115.1 629.4 113 632.3C114.8 629.9 116.6 627.6 118.5 625.2C113.1 631.7 106.6 637.4 100.7 643.4C98.2 645.9 95.8 648.2 93.6 650.9C83.9 663.1 77.8 676.7 77.8 692.6C77.8 710.2 85.4 726.5 97.7 738.8C101.9 743 106.1 747.2 110.3 751.4C124.3 765.4 138.3 779.4 152.3 793.4C165.9 807 178.2 821.4 197.1 827.7C220.7 835.7 246 826.8 263 809.8C269.7 803.1 276 795.9 283.3 789.8C280.9 791.6 278.6 793.4 276.2 795.3C279 793.1 281.9 791.4 285.2 789.9C282.4 791.1 279.6 792.3 276.8 793.4C280.5 791.9 284.2 790.8 288.1 790.3C285 790.7 281.9 791.1 278.8 791.6C282.3 791.2 285.6 791.2 289.1 791.6C286 791.2 282.9 790.8 279.8 790.3C283.3 790.8 286.6 791.7 290 793C287.2 791.8 284.4 790.6 281.6 789.5C292.2 794 302.5 799.2 313.1 803.6C321.5 807.1 330.1 809.9 338.6 813.2C335.8 812 333 810.8 330.2 809.7C333.6 811.2 336.7 813 339.7 815.3C337.3 813.5 335 811.7 332.6 809.8C335.1 811.8 337.3 814 339.3 816.5C337.5 814.1 335.7 811.8 333.8 809.4C336 812.3 337.9 815.3 339.4 818.7C338.2 815.9 337 813.1 335.9 810.3C337.3 813.7 338.3 817.2 338.8 820.8C338.4 817.7 338 814.6 337.5 811.5C338.5 820.1 337.9 829 337.9 837.6C337.9 841.1 337.8 844.6 338.2 848.1C339.7 863.4 345.2 876.6 355.7 888.1C367.7 901.2 385.6 907.6 403.1 907.7C409 907.7 414.9 907.7 420.8 907.7C440.9 907.7 461 907.7 481 907.7C500.7 907.7 520.6 909.4 538.6 899.2C559.8 887.2 570.5 864.5 570.5 840.7C570.5 831.1 569.7 821.1 570.9 811.6C570.5 814.7 570.1 817.8 569.6 820.9C570.2 817.2 571.1 813.8 572.5 810.4C571.3 813.2 570.1 816 569 818.8C570.5 815.5 572.3 812.4 574.6 809.5C572.8 811.9 571 814.2 569.1 816.6C571.1 814.1 573.3 811.9 575.8 809.9C573.4 811.7 571.1 813.5 568.7 815.4C571.7 813.2 574.8 811.3 578.2 809.8C575.4 811 572.6 812.2 569.8 813.3C578.2 810 586.9 807.2 595.3 803.7C606 799.3 616.2 794.1 626.8 789.6C624 790.8 621.2 792 618.4 793.1C621.7 791.8 625 790.9 628.6 790.4C625.5 790.8 622.4 791.2 619.3 791.7C622.8 791.3 626.1 791.3 629.6 791.7C626.5 791.3 623.4 790.9 620.3 790.4C624.2 791 628 792 631.6 793.5C628.8 792.3 626 791.1 623.2 790C626.4 791.5 629.3 793.3 632.2 795.4C629.8 793.6 627.5 791.8 625.1 789.9C631.6 795.3 637.3 801.8 643.3 807.7C645.8 810.2 648.1 812.6 650.8 814.8C663 824.5 676.6 830.6 692.5 830.6C710.1 830.6 726.4 823 738.7 810.7C742.9 806.5 747.1 802.3 751.3 798.1C765.3 784.1 779.3 770.1 793.3 756.1C806.9 742.5 821.3 730.2 827.6 711.3C835.6 687.7 826.7 662.4 809.7 645.4C803 638.7 795.8 632.4 789.7 625.1C791.5 627.5 793.3 629.8 795.2 632.2C793 629.4 791.3 626.5 789.8 623.2C791 626 792.2 628.8 793.3 631.6C791.8 627.9 790.7 624.2 790.2 620.3C790.6 623.4 791 626.5 791.5 629.6C791.1 626.1 791.1 622.8 791.5 619.3C791.1 622.4 790.7 625.5 790.2 628.6C790.7 625.1 791.6 621.8 792.9 618.4C791.7 621.2 790.5 624 789.4 626.8C797.2 608.7 805.8 591.1 812.1 572.5C818 555.1 805.3 533.5 787.7 529.4C768.3 524.8 750.9 535.1 744.6 553.7Z" fill="white"/>
<path d="M589 454C589 461.9 588.4 469.7 587.4 477.5C587.8 474.4 588.2 471.3 588.7 468.2C586.6 482.9 582.7 497.2 577 510.9C578.2 508.1 579.4 505.3 580.5 502.5C574.8 515.8 567.5 528.3 558.7 539.9C560.5 537.5 562.3 535.2 564.2 532.8C555.1 544.5 544.6 555 532.9 564.1C535.3 562.3 537.6 560.5 540 558.6C528.5 567.4 516 574.7 502.6 580.4C505.4 579.2 508.2 578 511 576.9C497.3 582.6 483 586.6 468.3 588.6C471.4 588.2 474.5 587.8 477.6 587.3C462 589.4 446.2 589.4 430.6 587.3C433.7 587.7 436.8 588.1 439.9 588.6C425.2 586.5 410.9 582.6 397.2 576.9C400 578.1 402.8 579.3 405.6 580.4C392.3 574.7 379.8 567.4 368.2 558.6C370.6 560.4 372.9 562.2 375.3 564.1C363.6 555 353.1 544.5 344 532.8C345.8 535.2 347.6 537.5 349.5 539.9C340.7 528.4 333.4 515.9 327.7 502.5C328.9 505.3 330.1 508.1 331.2 510.9C325.5 497.2 321.5 482.9 319.5 468.2C319.9 471.3 320.3 474.4 320.8 477.5C318.7 461.9 318.7 446.1 320.8 430.5C320.4 433.6 320 436.7 319.5 439.8C321.6 425.1 325.5 410.8 331.2 397.1C330 399.9 328.8 402.7 327.7 405.5C333.4 392.2 340.7 379.7 349.5 368.1C347.7 370.5 345.9 372.8 344 375.2C353.1 363.5 363.6 353 375.3 343.9C372.9 345.7 370.6 347.5 368.2 349.4C379.7 340.6 392.2 333.3 405.6 327.6C402.8 328.8 400 330 397.2 331.1C410.9 325.4 425.2 321.4 439.9 319.4C436.8 319.8 433.7 320.2 430.6 320.7C446.2 318.6 462 318.6 477.6 320.7C474.5 320.3 471.4 319.9 468.3 319.4C483 321.5 497.3 325.4 511 331.1C508.2 329.9 505.4 328.7 502.6 327.6C515.9 333.3 528.4 340.6 540 349.4C537.6 347.6 535.3 345.8 532.9 343.9C544.6 353 555.1 363.5 564.2 375.2C562.4 372.8 560.6 370.5 558.7 368.1C567.5 379.6 574.8 392.1 580.5 405.5C579.3 402.7 578.1 399.9 577 397.1C582.7 410.8 586.7 425.1 588.7 439.8C588.3 436.7 587.9 433.6 587.4 430.5C588.4 438.3 589 446.1 589 454C589.1 472.3 605 489.8 624 489C642.9 488.2 659.1 473.6 659 454C658.8 412.7 646.4 370.6 622.2 337C596.8 301.7 562.9 275.7 522.1 260.7C444.3 232 350.2 257.5 297.7 321.6C283 339.6 272 358.2 263.1 379.7C255.2 398.9 251.2 419.3 249.6 440C246.2 481.4 257 524.7 278.6 560C299.3 593.9 330.3 622.8 366.6 639.2C377 643.9 387.7 648.3 398.7 651.4C410 654.6 421.6 656.3 433.3 657.7C454.5 660.3 476.1 658.6 497 654.4C576.6 638.5 643.4 569.9 655.8 489.5C657.6 477.7 659 465.9 659.1 454C659.2 435.7 642.9 418.2 624.1 419C605 419.9 589.1 434.4 589 454Z" fill="white"/>
</svg>
